# xmcd
#
# Track frame offsets:
# 150
# 12454
# 26569
# 38840
# 59511
# 78061
# 100549
# 115287
# 138836
# 152080
#
# Disc length: 2274 seconds
#
#
# Revision: 0
# Processed by: cddbd v1.5.2PL0 Copyright (c) Steve Scherf et al.
# Submitted via: FreeRIP 2.96 
#
DISCID=7208e00a
DTITLE=Piper, Anni [AUS] - More Guitars Than Friends
DYEAR=2016
DGENRE=Blues
TTITLE0=Wonder Woman [from 'More Guitars Than Friends', Feb 2016] [FLVox]
TTITLE1=Just a Little Bit [Rosco Gordon cover, 1959] [from 'More Guitars Than Friends', Feb 2016] [FLVox]
TTITLE2=Buckle Bunny [from 'More Guitars Than Friends', Feb 2016] [FLVox]
TTITLE3=More Guitars Than Friends [from 'More Guitars Than Friends', Feb 2016] [FLVox]
TTITLE4=Paper Bag [from 'More Guitars Than Friends', Feb 2016] [FLVox]
TTITLE5=Cold Pizza and Warm Beer [Saffire and The Uppity Blues Women cover, 1998] [from 'More Guitars Than Friends', Feb 2016] [FLVox]
TTITLE6=Shotgun Wedding [from 'More Guitars Than Friends', Feb 2016] [FLVox]
TTITLE7=I'm Lost Without You [Memphis Slim cover, circa 1961] [from 'More Guitars Than Friends', Feb 2016] [FLVox]
TTITLE8=Eugene [from 'More Guitars Than Friends', Feb 2016] [FLVox]
TTITLE9=Blackberry Brandy [from 'More Guitars Than Friends', Feb 2016] [FLVox]
EXTD=(P) and (C) 2015, released 17 February 2016
EXTT0=
EXTT1=
EXTT2=
EXTT3=
EXTT4=
EXTT5=
EXTT6=
EXTT7=
EXTT8=
EXTT9=
PLAYORDER=
